<svg width="586" height="104" viewBox="0 0 586 104" fill="none" xmlns="http://www.w3.org/2000/svg">
<path d="M64.3145 101.023L107.005 26.9959L150.149 101.477L64.3145 101.023Z" stroke="#EB2F64" stroke-width="5"/>
<path d="M4.33898 101L60 4.98474L115.661 101H4.33898Z" stroke="#EB2F64" stroke-width="5"/>
<path d="M164.688 76.9062C165.219 84.6875 171.781 89.75 181.625 89.75C191.719 89.75 198.281 84.5312 198.281 76.1875C198.281 69.8125 194.562 66.0625 185.156 64L180.156 62.9062C174 61.5625 171.594 59.125 171.594 55.5625C171.594 50.9688 175.938 48.2188 181.562 48.2188C187.438 48.2188 191.344 51.25 191.844 56.1875H197.469C197.219 48.5312 190.719 43.1562 181.719 43.1562C172.375 43.1562 165.812 48.375 165.812 55.8125C165.812 62.2188 169.719 66.3125 178.75 68.2812L183.75 69.375C190 70.75 192.5 73.25 192.5 77.0312C192.5 81.4688 188.062 84.6875 181.938 84.6875C175.469 84.6875 170.969 81.75 170.312 76.9062H164.688ZM214.75 84.9375C210.844 84.9375 208.25 82.9062 208.25 79.8125C208.25 76.75 210.75 74.8125 215.125 74.5312L223.812 74V76.6562C223.812 81.3438 219.875 84.9375 214.75 84.9375ZM213.531 89.5625C217.906 89.5625 222.031 87.125 223.969 83.4062H224.094V89H229.25V66.5312C229.25 60.0625 224.438 55.9375 216.812 55.9375C209.125 55.9375 204.312 60.25 203.938 65.875H209.188C209.875 62.6875 212.5 60.7188 216.688 60.7188C221.188 60.7188 223.812 63.0938 223.812 67.0625V69.7812L214.5 70.3125C207 70.75 202.719 74.25 202.719 79.8125C202.719 85.6562 207.062 89.5625 213.531 89.5625ZM236.156 89H241.594V69.875C241.594 64.375 244.938 60.75 250.062 60.75C255.062 60.75 257.531 63.625 257.531 68.875V89H262.969V67.9062C262.969 60.5312 258.844 55.9375 251.719 55.9375C246.688 55.9375 243.219 58.1875 241.406 61.6875H241.281V56.5H236.156V89ZM269.906 89H275.344V69.875C275.344 64.375 278.688 60.75 283.812 60.75C288.812 60.75 291.281 63.625 291.281 68.875V89H296.719V67.9062C296.719 60.5312 292.594 55.9375 285.469 55.9375C280.438 55.9375 276.969 58.1875 275.156 61.6875H275.031V56.5H269.906V89ZM303.938 89H309.375V56.5H303.938V89ZM306.656 50.7188C308.562 50.7188 310.062 49.1875 310.062 47.3125C310.062 45.4062 308.562 43.9062 306.656 43.9062C304.781 43.9062 303.25 45.4062 303.25 47.3125C303.25 49.1875 304.781 50.7188 306.656 50.7188ZM316.719 89H322.156V69.875C322.156 64.375 325.5 60.75 330.625 60.75C335.625 60.75 338.094 63.625 338.094 68.875V89H343.531V67.9062C343.531 60.5312 339.406 55.9375 332.281 55.9375C327.25 55.9375 323.781 58.1875 321.969 61.6875H321.844V56.5H316.719V89ZM349.125 76.9062C349.656 84.6875 356.219 89.75 366.062 89.75C376.156 89.75 382.719 84.5312 382.719 76.1875C382.719 69.8125 379 66.0625 369.594 64L364.594 62.9062C358.438 61.5625 356.031 59.125 356.031 55.5625C356.031 50.9688 360.375 48.2188 366 48.2188C371.875 48.2188 375.781 51.25 376.281 56.1875H381.906C381.656 48.5312 375.156 43.1562 366.156 43.1562C356.812 43.1562 350.25 48.375 350.25 55.8125C350.25 62.2188 354.156 66.3125 363.188 68.2812L368.188 69.375C374.438 70.75 376.938 73.25 376.938 77.0312C376.938 81.4688 372.5 84.6875 366.375 84.6875C359.906 84.6875 355.406 81.75 354.75 76.9062H349.125ZM407.875 89.75C417.844 89.75 424.531 84.7812 426.594 75.875H420.906C419.281 81.375 414.531 84.5625 407.906 84.5625C399 84.5625 393.344 77.5 393.344 66.4375C393.344 55.4688 399.062 48.3438 407.875 48.3438C414.312 48.3438 419.469 52.2188 420.906 58.125H426.594C425.156 49.125 417.688 43.1562 407.875 43.1562C395.531 43.1562 387.562 52.2812 387.562 66.4375C387.562 80.7188 395.438 89.75 407.875 89.75ZM482.375 89V43.9062H476.75V63.4062H452V43.9062H446.375V89H452V68.4688H476.75V89H482.375ZM503.75 89.5625C512.719 89.5625 518.781 83.0938 518.781 72.75C518.781 62.375 512.719 55.9375 503.75 55.9375C494.75 55.9375 488.688 62.375 488.688 72.75C488.688 83.0938 494.75 89.5625 503.75 89.5625ZM503.75 84.7812C498 84.7812 494.219 80.4062 494.219 72.75C494.219 65.0938 498 60.7188 503.75 60.7188C509.5 60.7188 513.25 65.0938 513.25 72.75C513.25 80.4062 509.5 84.7812 503.75 84.7812ZM526.031 48.6562V56.5H521.188V60.9688H526.031V80.5625C526.031 86.8125 528.344 89.25 534.312 89.25C535.594 89.25 537.094 89.1562 537.75 89V84.4375C537.375 84.5 536.125 84.5938 535.5 84.5938C532.719 84.5938 531.469 83.25 531.469 80.2812V60.9688H537.781V56.5H531.469V48.6562H526.031ZM555.688 60.6562C560.812 60.6562 564.219 64.5312 564.344 69.9688H546.688C547.031 64.5625 550.594 60.6562 555.688 60.6562ZM564.219 79.6875C563.312 82.75 560.281 84.8438 556.156 84.8438C550.312 84.8438 546.656 80.75 546.656 74.5312V74.2188H569.969V72.1562C569.969 62.3125 564.562 55.9375 555.781 55.9375C546.812 55.9375 541.062 62.7812 541.062 72.875C541.062 83.0938 546.719 89.5625 556.031 89.5625C563.125 89.5625 568.625 85.375 569.562 79.6875H564.219ZM575.75 89H581.188V43.9062H575.75V89Z" fill="#EB2F64"/>
</svg>
