<svg width="16" height="16" viewBox="0 0 16 16" fill="none" xmlns="http://www.w3.org/2000/svg">
<g >
<path d="M15.9583 6.13772C15.8536 5.81374 15.5662 5.58363 15.2262 5.55299L10.6082 5.13367L8.78208 0.85951C8.64744 0.54627 8.34079 0.343506 8.00008 0.343506C7.65937 0.343506 7.35273 0.54627 7.21808 0.860243L5.39198 5.13367L0.773211 5.55299C0.433847 5.58436 0.147219 5.81374 0.0418692 6.13772C-0.0634802 6.4617 0.0338123 6.81706 0.290533 7.04107L3.78122 10.1024L2.7519 14.6366C2.67658 14.97 2.80598 15.3146 3.0826 15.5145C3.23128 15.622 3.40524 15.6767 3.58066 15.6767C3.73191 15.6767 3.88193 15.6359 4.01658 15.5553L8.00008 13.1745L11.9821 15.5553C12.2735 15.7306 12.6408 15.7146 12.9168 15.5145C13.1936 15.314 13.3229 14.9692 13.2475 14.6366L12.2182 10.1024L15.7089 7.04168C15.9656 6.81706 16.0636 6.46231 15.9583 6.13772V6.13772Z" fill="#FFC107"/>
</g>
<defs>
<clipPath >
<rect width="16" height="16" fill="white"/>
</clipPath>
</defs>
</svg>
