<?xml version="1.0" encoding="UTF-8" standalone="no"?><svg xmlns="http://www.w3.org/2000/svg" xmlns:xlink="http://www.w3.org/1999/xlink" contentScriptType="application/ecmascript" contentStyleType="text/css" height="943px" preserveAspectRatio="none" style="width:2176px;height:943px;background:#FFFFFF;" version="1.1" viewBox="0 0 2176 943" width="2176px" zoomAndPan="magnify"><defs><filter height="300%" id="f1n0kfnxjbyljz" width="300%" x="-1" y="-1"><feGaussianBlur result="blurOut" stdDeviation="2.0"/><feColorMatrix in="blurOut" result="blurOut2" type="matrix" values="0 0 0 0 0 0 0 0 0 0 0 0 0 0 0 0 0 0 .4 0"/><feOffset dx="4.0" dy="4.0" in="blurOut2" result="blurOut3"/><feBlend in="SourceGraphic" in2="blurOut3" mode="normal"/></filter></defs><g><rect fill="#FFFFFF" filter="url(#f1n0kfnxjbyljz)" height="926.4609" style="stroke:#000000;stroke-width:1.0;" width="2159" x="5" y="5"/><path d="M153,5 L153,15.6094 L143,25.6094 L5,25.6094 " fill="none" style="stroke:#000000;stroke-width:1.0;"/><text fill="#000000" font-family="sans-serif" font-size="14" font-weight="bold" lengthAdjust="spacing" textLength="17" x="8" y="20.5332">sd</text><text fill="#000000" font-family="sans-serif" font-size="14" lengthAdjust="spacing" textLength="117" x="29" y="20.5332">View User Account</text><rect fill="#FFFFFF" filter="url(#f1n0kfnxjbyljz)" height="764.8906" style="stroke:#A80036;stroke-width:1.0;" width="10" x="178.5" y="149.5703"/><rect fill="#FFFFFF" filter="url(#f1n0kfnxjbyljz)" height="323" style="stroke:#A80036;stroke-width:1.0;" width="10" x="351.5" y="179.9219"/><rect fill="#FFFFFF" filter="url(#f1n0kfnxjbyljz)" height="218.9453" style="stroke:#A80036;stroke-width:1.0;" width="10" x="1101.5" y="253.625"/><rect fill="#FFFFFF" filter="url(#f1n0kfnxjbyljz)" height="381.5391" style="stroke:#A80036;stroke-width:1.0;" width="10" x="1560.5" y="502.9219"/><rect fill="#FFFFFF" filter="url(#f1n0kfnxjbyljz)" height="91.0547" style="stroke:#A80036;stroke-width:1.0;" width="10" x="1902.5" y="648.1641"/><rect fill="#FFFFFF" filter="url(#f1n0kfnxjbyljz)" height="30.3516" style="stroke:#A80036;stroke-width:1.0;" width="10" x="2085.5" y="678.5156"/><rect fill="#FFFFFF" filter="url(#f1n0kfnxjbyljz)" height="551.1328" style="stroke:#000000;stroke-width:2.0;" width="2031" x="119" y="355.3281"/><rect fill="#FFFFFF" height="472.0781" style="stroke:none;stroke-width:1.0;" width="2031" x="119" y="434.3828"/><rect fill="#FFFFFF" filter="url(#f1n0kfnxjbyljz)" height="338.1875" style="stroke:#000000;stroke-width:2.0;" width="2011" x="129" y="561.2734"/><rect fill="#FFFFFF" height="289.4844" style="stroke:none;stroke-width:1.0;" width="2011" x="129" y="609.9766"/><rect fill="#FFFFFF" filter="url(#f1n0kfnxjbyljz)" height="138.2422" style="stroke:#000000;stroke-width:2.0;" width="1768.5" x="139" y="754.2188"/><rect fill="#FFFFFF" height="89.5391" style="stroke:none;stroke-width:1.0;" width="1768.5" x="139" y="802.9219"/><line style="stroke:#A80036;stroke-width:1.0;stroke-dasharray:5.0,5.0;" x1="27" x2="27" y1="117.2188" y2="923.4609"/><line style="stroke:#A80036;stroke-width:1.0;stroke-dasharray:5.0,5.0;" x1="183" x2="183" y1="117.2188" y2="923.4609"/><line style="stroke:#A80036;stroke-width:1.0;stroke-dasharray:5.0,5.0;" x1="356" x2="356" y1="117.2188" y2="923.4609"/><line style="stroke:#A80036;stroke-width:1.0;stroke-dasharray:5.0,5.0;" x1="1106" x2="1106" y1="117.2188" y2="923.4609"/><line style="stroke:#A80036;stroke-width:1.0;stroke-dasharray:5.0,5.0;" x1="1565.5" x2="1565.5" y1="117.2188" y2="923.4609"/><line style="stroke:#A80036;stroke-width:1.0;stroke-dasharray:5.0,5.0;" x1="1907" x2="1907" y1="117.2188" y2="923.4609"/><line style="stroke:#A80036;stroke-width:1.0;stroke-dasharray:5.0,5.0;" x1="2090" x2="2090" y1="117.2188" y2="923.4609"/><text fill="#000000" font-family="sans-serif" font-size="14" lengthAdjust="spacing" textLength="29" x="10" y="114.1426">User</text><ellipse cx="27.5" cy="42.6094" fill="#FEFECE" filter="url(#f1n0kfnxjbyljz)" rx="8" ry="8" style="stroke:#A80036;stroke-width:2.0;"/><path d="M27.5,50.6094 L27.5,77.6094 M14.5,58.6094 L40.5,58.6094 M27.5,77.6094 L14.5,92.6094 M27.5,77.6094 L40.5,92.6094 " fill="none" filter="url(#f1n0kfnxjbyljz)" style="stroke:#A80036;stroke-width:2.0;"/><rect fill="#FEFECE" filter="url(#f1n0kfnxjbyljz)" height="31.6094" style="stroke:#A80036;stroke-width:1.5;" width="65" x="149" y="80.6094"/><text fill="#000000" font-family="sans-serif" font-size="14" lengthAdjust="spacing" textLength="51" x="156" y="102.1426">Browser</text><rect fill="#FEFECE" filter="url(#f1n0kfnxjbyljz)" height="31.6094" style="stroke:#A80036;stroke-width:1.5;" width="135" x="287" y="80.6094"/><text fill="#000000" font-family="sans-serif" font-size="14" lengthAdjust="spacing" textLength="121" x="294" y="102.1426">:CommonRoleFilter</text><rect fill="#FEFECE" filter="url(#f1n0kfnxjbyljz)" height="31.6094" style="stroke:#A80036;stroke-width:1.5;" width="59" x="1075" y="80.6094"/><text fill="#000000" font-family="sans-serif" font-size="14" lengthAdjust="spacing" textLength="45" x="1082" y="102.1426">:Helper</text><rect fill="#FEFECE" filter="url(#f1n0kfnxjbyljz)" height="31.6094" style="stroke:#A80036;stroke-width:1.5;" width="138" x="1494.5" y="80.6094"/><text fill="#000000" font-family="sans-serif" font-size="14" lengthAdjust="spacing" textLength="124" x="1501.5" y="102.1426">:ViewUserController</text><rect fill="#FEFECE" filter="url(#f1n0kfnxjbyljz)" height="31.6094" style="stroke:#A80036;stroke-width:1.5;" width="77" x="1867" y="80.6094"/><text fill="#000000" font-family="sans-serif" font-size="14" lengthAdjust="spacing" textLength="63" x="1874" y="102.1426">:UserDAO</text><rect fill="#FEFECE" filter="url(#f1n0kfnxjbyljz)" height="31.6094" style="stroke:#A80036;stroke-width:1.5;" width="75" x="2051" y="80.6094"/><text fill="#000000" font-family="sans-serif" font-size="14" lengthAdjust="spacing" textLength="61" x="2058" y="102.1426">Database</text><rect fill="#FFFFFF" filter="url(#f1n0kfnxjbyljz)" height="764.8906" style="stroke:#A80036;stroke-width:1.0;" width="10" x="178.5" y="149.5703"/><rect fill="#FFFFFF" filter="url(#f1n0kfnxjbyljz)" height="323" style="stroke:#A80036;stroke-width:1.0;" width="10" x="351.5" y="179.9219"/><rect fill="#FFFFFF" filter="url(#f1n0kfnxjbyljz)" height="218.9453" style="stroke:#A80036;stroke-width:1.0;" width="10" x="1101.5" y="253.625"/><rect fill="#FFFFFF" filter="url(#f1n0kfnxjbyljz)" height="381.5391" style="stroke:#A80036;stroke-width:1.0;" width="10" x="1560.5" y="502.9219"/><rect fill="#FFFFFF" filter="url(#f1n0kfnxjbyljz)" height="91.0547" style="stroke:#A80036;stroke-width:1.0;" width="10" x="1902.5" y="648.1641"/><rect fill="#FFFFFF" filter="url(#f1n0kfnxjbyljz)" height="30.3516" style="stroke:#A80036;stroke-width:1.0;" width="10" x="2085.5" y="678.5156"/><line style="stroke:#A80036;stroke-width:1.0;" x1="176.5" x2="166.5" y1="149.5703" y2="145.5703"/><line style="stroke:#A80036;stroke-width:1.0;" x1="176.5" x2="166.5" y1="149.5703" y2="153.5703"/><line style="stroke:#A80036;stroke-width:1.0;" x1="27.5" x2="177.5" y1="149.5703" y2="149.5703"/><text fill="#000000" font-family="sans-serif" font-size="13" lengthAdjust="spacing" textLength="132" x="34.5" y="144.7139">Click on view user Link</text><line style="stroke:#A80036;stroke-width:1.0;" x1="349.5" x2="339.5" y1="179.9219" y2="175.9219"/><line style="stroke:#A80036;stroke-width:1.0;" x1="349.5" x2="339.5" y1="179.9219" y2="183.9219"/><line style="stroke:#A80036;stroke-width:1.0;" x1="188.5" x2="350.5" y1="179.9219" y2="179.9219"/><text fill="#000000" font-family="sans-serif" font-size="13" lengthAdjust="spacing" textLength="144" x="195.5" y="175.0654">GET /ViewUserController</text><line style="stroke:#A80036;stroke-width:1.0;" x1="361.5" x2="403.5" y1="210.2734" y2="210.2734"/><line style="stroke:#A80036;stroke-width:1.0;" x1="403.5" x2="403.5" y1="210.2734" y2="223.2734"/><line style="stroke:#A80036;stroke-width:1.0;" x1="362.5" x2="403.5" y1="223.2734" y2="223.2734"/><line style="stroke:#A80036;stroke-width:1.0;" x1="362.5" x2="372.5" y1="223.2734" y2="219.2734"/><line style="stroke:#A80036;stroke-width:1.0;" x1="362.5" x2="372.5" y1="223.2734" y2="227.2734"/><text fill="#000000" font-family="sans-serif" font-size="13" lengthAdjust="spacing" textLength="211" x="368.5" y="205.417">Context.lookup(String name): Object</text><line style="stroke:#A80036;stroke-width:1.0;" x1="1099.5" x2="1089.5" y1="253.625" y2="249.625"/><line style="stroke:#A80036;stroke-width:1.0;" x1="1099.5" x2="1089.5" y1="253.625" y2="257.625"/><line style="stroke:#A80036;stroke-width:1.0;" x1="361.5" x2="1100.5" y1="253.625" y2="253.625"/><text fill="#000000" font-family="sans-serif" font-size="13" lengthAdjust="spacing" textLength="721" x="368.5" y="248.7686">protectedRouter(HttpServletRequest request, HttpServletResponse response, int minRole, int maxRole, String page): boolean</text><line style="stroke:#A80036;stroke-width:1.0;" x1="1111.5" x2="1153.5" y1="283.9766" y2="283.9766"/><line style="stroke:#A80036;stroke-width:1.0;" x1="1153.5" x2="1153.5" y1="283.9766" y2="296.9766"/><line style="stroke:#A80036;stroke-width:1.0;" x1="1112.5" x2="1153.5" y1="296.9766" y2="296.9766"/><line style="stroke:#A80036;stroke-width:1.0;" x1="1112.5" x2="1122.5" y1="296.9766" y2="292.9766"/><line style="stroke:#A80036;stroke-width:1.0;" x1="1112.5" x2="1122.5" y1="296.9766" y2="300.9766"/><text fill="#000000" font-family="sans-serif" font-size="13" lengthAdjust="spacing" textLength="260" x="1118.5" y="279.1201">isLogin(HttpServletRequest request): boolean</text><line style="stroke:#A80036;stroke-width:1.0;" x1="1111.5" x2="1153.5" y1="327.3281" y2="327.3281"/><line style="stroke:#A80036;stroke-width:1.0;" x1="1153.5" x2="1153.5" y1="327.3281" y2="340.3281"/><line style="stroke:#A80036;stroke-width:1.0;" x1="1112.5" x2="1153.5" y1="340.3281" y2="340.3281"/><line style="stroke:#A80036;stroke-width:1.0;" x1="1112.5" x2="1122.5" y1="340.3281" y2="336.3281"/><line style="stroke:#A80036;stroke-width:1.0;" x1="1112.5" x2="1122.5" y1="340.3281" y2="344.3281"/><text fill="#000000" font-family="sans-serif" font-size="13" lengthAdjust="spacing" textLength="435" x="1118.5" y="322.4717">correctRole(HttpServletRequest request, int minRole, int maxRole): boolean</text><path d="M119,355.3281 L180,355.3281 L180,363.3281 L170,373.3281 L119,373.3281 L119,355.3281 " fill="#EEEEEE" style="stroke:#000000;stroke-width:1.0;"/><rect fill="none" height="551.1328" style="stroke:#000000;stroke-width:2.0;" width="2031" x="119" y="355.3281"/><text fill="#000000" font-family="sans-serif" font-size="13" font-weight="bold" lengthAdjust="spacing" textLength="16" x="134" y="369.8232">alt</text><text fill="#000000" font-family="sans-serif" font-size="11" font-weight="bold" lengthAdjust="spacing" textLength="73" x="195" y="368.7471">[return false]</text><line style="stroke:#A80036;stroke-width:1.0;" x1="361.5" x2="371.5" y1="396.0313" y2="392.0313"/><line style="stroke:#A80036;stroke-width:1.0;" x1="361.5" x2="371.5" y1="396.0313" y2="400.0313"/><line style="stroke:#A80036;stroke-width:1.0;stroke-dasharray:2.0,2.0;" x1="361.5" x2="1100.5" y1="396.0313" y2="396.0313"/><text fill="#000000" font-family="sans-serif" font-size="13" lengthAdjust="spacing" textLength="93" x="378.5" y="391.1748">forward login.jsp</text><line style="stroke:#A80036;stroke-width:1.0;" x1="188.5" x2="198.5" y1="426.3828" y2="422.3828"/><line style="stroke:#A80036;stroke-width:1.0;" x1="188.5" x2="198.5" y1="426.3828" y2="430.3828"/><line style="stroke:#A80036;stroke-width:1.0;stroke-dasharray:2.0,2.0;" x1="188.5" x2="350.5" y1="426.3828" y2="426.3828"/><text fill="#000000" font-family="sans-serif" font-size="13" lengthAdjust="spacing" textLength="93" x="205.5" y="421.5264">forward login.jsp</text><line style="stroke:#000000;stroke-width:1.0;stroke-dasharray:2.0,2.0;" x1="119" x2="2150" y1="435.3828" y2="435.3828"/><text fill="#000000" font-family="sans-serif" font-size="11" font-weight="bold" lengthAdjust="spacing" textLength="69" x="124" y="446.8018">[return true]</text><line style="stroke:#A80036;stroke-width:1.0;" x1="361.5" x2="371.5" y1="472.5703" y2="468.5703"/><line style="stroke:#A80036;stroke-width:1.0;" x1="361.5" x2="371.5" y1="472.5703" y2="476.5703"/><line style="stroke:#A80036;stroke-width:1.0;stroke-dasharray:2.0,2.0;" x1="361.5" x2="1105.5" y1="472.5703" y2="472.5703"/><text fill="#000000" font-family="sans-serif" font-size="13" lengthAdjust="spacing" textLength="59" x="378.5" y="467.7139">return true</text><line style="stroke:#A80036;stroke-width:1.0;" x1="1558.5" x2="1548.5" y1="502.9219" y2="498.9219"/><line style="stroke:#A80036;stroke-width:1.0;" x1="1558.5" x2="1548.5" y1="502.9219" y2="506.9219"/><line style="stroke:#A80036;stroke-width:1.0;" x1="356.5" x2="1559.5" y1="502.9219" y2="502.9219"/><text fill="#000000" font-family="sans-serif" font-size="13" lengthAdjust="spacing" textLength="331" x="363.5" y="498.0654">doFilter(ServletRequest arg0, ServletResponse arg1): void</text><line style="stroke:#A80036;stroke-width:1.0;" x1="1570.5" x2="1612.5" y1="533.2734" y2="533.2734"/><line style="stroke:#A80036;stroke-width:1.0;" x1="1612.5" x2="1612.5" y1="533.2734" y2="546.2734"/><line style="stroke:#A80036;stroke-width:1.0;" x1="1571.5" x2="1612.5" y1="546.2734" y2="546.2734"/><line style="stroke:#A80036;stroke-width:1.0;" x1="1571.5" x2="1581.5" y1="546.2734" y2="542.2734"/><line style="stroke:#A80036;stroke-width:1.0;" x1="1571.5" x2="1581.5" y1="546.2734" y2="550.2734"/><text fill="#000000" font-family="sans-serif" font-size="13" lengthAdjust="spacing" textLength="318" x="1577.5" y="528.417">HttpSession.getAttribute(String arg0, Object arg1): void</text><path d="M129,561.2734 L190,561.2734 L190,569.2734 L180,579.2734 L129,579.2734 L129,561.2734 " fill="#EEEEEE" style="stroke:#000000;stroke-width:1.0;"/><rect fill="none" height="338.1875" style="stroke:#000000;stroke-width:2.0;" width="2011" x="129" y="561.2734"/><text fill="#000000" font-family="sans-serif" font-size="13" font-weight="bold" lengthAdjust="spacing" textLength="16" x="144" y="575.7686">alt</text><text fill="#000000" font-family="sans-serif" font-size="11" font-weight="bold" lengthAdjust="spacing" textLength="88" x="205" y="574.6924">[null username]</text><line style="stroke:#A80036;stroke-width:1.0;" x1="188.5" x2="198.5" y1="601.9766" y2="597.9766"/><line style="stroke:#A80036;stroke-width:1.0;" x1="188.5" x2="198.5" y1="601.9766" y2="605.9766"/><line style="stroke:#A80036;stroke-width:1.0;stroke-dasharray:2.0,2.0;" x1="188.5" x2="1559.5" y1="601.9766" y2="601.9766"/><text fill="#000000" font-family="sans-serif" font-size="13" lengthAdjust="spacing" textLength="92" x="205.5" y="597.1201">forward error.jsp</text><line style="stroke:#000000;stroke-width:1.0;stroke-dasharray:2.0,2.0;" x1="129" x2="2140" y1="610.9766" y2="610.9766"/><text fill="#000000" font-family="sans-serif" font-size="11" font-weight="bold" lengthAdjust="spacing" textLength="86" x="134" y="622.3955">[get username]</text><line style="stroke:#A80036;stroke-width:1.0;" x1="1900.5" x2="1890.5" y1="648.1641" y2="644.1641"/><line style="stroke:#A80036;stroke-width:1.0;" x1="1900.5" x2="1890.5" y1="648.1641" y2="652.1641"/><line style="stroke:#A80036;stroke-width:1.0;" x1="1570.5" x2="1901.5" y1="648.1641" y2="648.1641"/><text fill="#000000" font-family="sans-serif" font-size="13" lengthAdjust="spacing" textLength="282" x="1577.5" y="643.3076">getOneUserByUsername(String username): User</text><line style="stroke:#A80036;stroke-width:1.0;" x1="2083.5" x2="2073.5" y1="678.5156" y2="674.5156"/><line style="stroke:#A80036;stroke-width:1.0;" x1="2083.5" x2="2073.5" y1="678.5156" y2="682.5156"/><line style="stroke:#A80036;stroke-width:1.0;" x1="1912.5" x2="2084.5" y1="678.5156" y2="678.5156"/><text fill="#000000" font-family="sans-serif" font-size="13" lengthAdjust="spacing" textLength="154" x="1919.5" y="673.6592">executeQuery(): ResultSet</text><line style="stroke:#A80036;stroke-width:1.0;" x1="1912.5" x2="1922.5" y1="708.8672" y2="704.8672"/><line style="stroke:#A80036;stroke-width:1.0;" x1="1912.5" x2="1922.5" y1="708.8672" y2="712.8672"/><line style="stroke:#A80036;stroke-width:1.0;stroke-dasharray:2.0,2.0;" x1="1912.5" x2="2089.5" y1="708.8672" y2="708.8672"/><text fill="#000000" font-family="sans-serif" font-size="13" lengthAdjust="spacing" textLength="94" x="1929.5" y="704.0107">return ResultSet</text><line style="stroke:#A80036;stroke-width:1.0;" x1="1570.5" x2="1580.5" y1="739.2188" y2="735.2188"/><line style="stroke:#A80036;stroke-width:1.0;" x1="1570.5" x2="1580.5" y1="739.2188" y2="743.2188"/><line style="stroke:#A80036;stroke-width:1.0;stroke-dasharray:2.0,2.0;" x1="1570.5" x2="1906.5" y1="739.2188" y2="739.2188"/><text fill="#000000" font-family="sans-serif" font-size="13" lengthAdjust="spacing" textLength="64" x="1587.5" y="734.3623">return User</text><path d="M139,754.2188 L200,754.2188 L200,762.2188 L190,772.2188 L139,772.2188 L139,754.2188 " fill="#EEEEEE" style="stroke:#000000;stroke-width:1.0;"/><rect fill="none" height="138.2422" style="stroke:#000000;stroke-width:2.0;" width="1768.5" x="139" y="754.2188"/><text fill="#000000" font-family="sans-serif" font-size="13" font-weight="bold" lengthAdjust="spacing" textLength="16" x="154" y="768.7139">alt</text><text fill="#000000" font-family="sans-serif" font-size="11" font-weight="bold" lengthAdjust="spacing" textLength="116" x="215" y="767.6377">[not exist username]</text><line style="stroke:#A80036;stroke-width:1.0;" x1="188.5" x2="198.5" y1="794.9219" y2="790.9219"/><line style="stroke:#A80036;stroke-width:1.0;" x1="188.5" x2="198.5" y1="794.9219" y2="798.9219"/><line style="stroke:#A80036;stroke-width:1.0;stroke-dasharray:2.0,2.0;" x1="188.5" x2="1559.5" y1="794.9219" y2="794.9219"/><text fill="#000000" font-family="sans-serif" font-size="13" lengthAdjust="spacing" textLength="92" x="205.5" y="790.0654">forward error.jsp</text><line style="stroke:#000000;stroke-width:1.0;stroke-dasharray:2.0,2.0;" x1="139" x2="1907.5" y1="803.9219" y2="803.9219"/><text fill="#000000" font-family="sans-serif" font-size="11" font-weight="bold" lengthAdjust="spacing" textLength="95" x="144" y="815.3408">[exist username]</text><line style="stroke:#A80036;stroke-width:1.0;" x1="1570.5" x2="1612.5" y1="841.1094" y2="841.1094"/><line style="stroke:#A80036;stroke-width:1.0;" x1="1612.5" x2="1612.5" y1="841.1094" y2="854.1094"/><line style="stroke:#A80036;stroke-width:1.0;" x1="1571.5" x2="1612.5" y1="854.1094" y2="854.1094"/><line style="stroke:#A80036;stroke-width:1.0;" x1="1571.5" x2="1581.5" y1="854.1094" y2="850.1094"/><line style="stroke:#A80036;stroke-width:1.0;" x1="1571.5" x2="1581.5" y1="854.1094" y2="858.1094"/><text fill="#000000" font-family="sans-serif" font-size="13" lengthAdjust="spacing" textLength="318" x="1577.5" y="836.2529">HttpSession.setAttribute(String arg0, Object arg1): void</text><line style="stroke:#A80036;stroke-width:1.0;" x1="188.5" x2="198.5" y1="884.4609" y2="880.4609"/><line style="stroke:#A80036;stroke-width:1.0;" x1="188.5" x2="198.5" y1="884.4609" y2="888.4609"/><line style="stroke:#A80036;stroke-width:1.0;stroke-dasharray:2.0,2.0;" x1="188.5" x2="1564.5" y1="884.4609" y2="884.4609"/><text fill="#000000" font-family="sans-serif" font-size="13" lengthAdjust="spacing" textLength="137" x="205.5" y="879.6045">forward viewUserInfo.jsp</text><!--MD5=[2e5fd3f2078a40c4efaad6b26a1b2a00]
@startuml viewUser

hide footbox
mainframe <b>sd</b> View User Account
actor User
participant "Browser" as Browser
participant ":CommonRoleFilter" as CommonRoleFilter
participant ":Helper" as Helper
participant ":ViewUserController" as ViewUserController
participant ":UserDAO" as UserDao
participant "Database" as DB

User ->> Browser: Click on view user Link
activate Browser
Browser ->> CommonRoleFilter: GET /ViewUserController
activate CommonRoleFilter
CommonRoleFilter ->> CommonRoleFilter: Context.lookup(String name): Object
CommonRoleFilter ->> Helper: protectedRouter(HttpServletRequest request, HttpServletResponse response, int minRole, int maxRole, String page): boolean
activate Helper
Helper ->> Helper: isLogin(HttpServletRequest request): boolean
Helper ->> Helper: correctRole(HttpServletRequest request, int minRole, int maxRole): boolean
alt return false 
    Helper - ->> CommonRoleFilter: forward login.jsp
    CommonRoleFilter - ->> Browser: forward login.jsp
else return true
    Helper - ->> CommonRoleFilter: return true
    deactivate Helper
    CommonRoleFilter ->> ViewUserController: doFilter(ServletRequest arg0, ServletResponse arg1): void
    deactivate CommonRoleFilter
    activate ViewUserController
    ViewUserController ->> ViewUserController: HttpSession.getAttribute(String arg0, Object arg1): void
    alt null username
        ViewUserController - ->> Browser: forward error.jsp
    else get username
        ViewUserController ->> UserDao: getOneUserByUsername(String username): User
        activate UserDao
        UserDao ->> DB: executeQuery(): ResultSet
        activate DB
        DB - ->> UserDao: return ResultSet
        deactivate DB
        UserDao - ->> ViewUserController: return User
        deactivate UserDao
        alt not exist username
            ViewUserController - ->> Browser: forward error.jsp
        else exist username
            ViewUserController ->> ViewUserController: HttpSession.setAttribute(String arg0, Object arg1): void
            ViewUserController - ->> Browser: forward viewUserInfo.jsp
        deactivate ViewUserController
    end
    end
end

@enduml

PlantUML version 1.2021.7(Sun May 23 19:40:07 ICT 2021)
(GPL source distribution)
Java Runtime: OpenJDK Runtime Environment
JVM: OpenJDK 64-Bit Server VM
Default Encoding: Cp1252
Language: en
Country: US
--></g></svg>