<?xml version="1.0" encoding="UTF-8" standalone="no"?><svg xmlns="http://www.w3.org/2000/svg" xmlns:xlink="http://www.w3.org/1999/xlink" contentScriptType="application/ecmascript" contentStyleType="text/css" height="738px" preserveAspectRatio="none" style="width:1368px;height:738px;" version="1.1" viewBox="0 0 1368 738" width="1368px" zoomAndPan="magnify"><defs><filter height="300%" id="flksrde5xfkp" width="300%" x="-1" y="-1"><feGaussianBlur result="blurOut" stdDeviation="2.0"/><feColorMatrix in="blurOut" result="blurOut2" type="matrix" values="0 0 0 0 0 0 0 0 0 0 0 0 0 0 0 0 0 0 .4 0"/><feOffset dx="4.0" dy="4.0" in="blurOut2" result="blurOut3"/><feBlend in="SourceGraphic" in2="blurOut3" mode="normal"/></filter></defs><g><rect fill="#FFFFFF" filter="url(#flksrde5xfkp)" height="721.3828" style="stroke:#000000;stroke-width:1.0;" width="1351.5" x="5" y="5"/><path d="M106,5 L106,15.6094 L96,25.6094 L5,25.6094 " fill="none" style="stroke:#000000;stroke-width:1.0;"/><text fill="#000000" font-family="sans-serif" font-size="14" font-weight="bold" lengthAdjust="spacing" textLength="17" x="8" y="20.5332">sd</text><text fill="#000000" font-family="sans-serif" font-size="14" lengthAdjust="spacing" textLength="70" x="29" y="20.5332">Index Page</text><rect fill="#FFFFFF" filter="url(#flksrde5xfkp)" height="536.8125" style="stroke:#A80036;stroke-width:1.0;" width="10" x="152.5" y="149.5703"/><rect fill="#FFFFFF" filter="url(#flksrde5xfkp)" height="506.4609" style="stroke:#A80036;stroke-width:1.0;" width="10" x="301.5" y="179.9219"/><rect fill="#FFFFFF" filter="url(#flksrde5xfkp)" height="151.7578" style="stroke:#A80036;stroke-width:1.0;" width="10" x="997.5" y="210.2734"/><rect fill="#FFFFFF" filter="url(#flksrde5xfkp)" height="91.0547" style="stroke:#A80036;stroke-width:1.0;" width="10" x="1095" y="521.625"/><rect fill="#FFFFFF" filter="url(#flksrde5xfkp)" height="30.3516" style="stroke:#A80036;stroke-width:1.0;" width="10" x="1278" y="551.9766"/><rect fill="#FFFFFF" filter="url(#flksrde5xfkp)" height="324.3516" style="stroke:#000000;stroke-width:2.0;" width="1239.5" x="103" y="377.0313"/><rect fill="#FFFFFF" height="275.6484" style="stroke:none;stroke-width:1.0;" width="1239.5" x="103" y="425.7344"/><rect fill="#FFFFFF" filter="url(#flksrde5xfkp)" height="259.6484" style="stroke:#000000;stroke-width:2.0;" width="1219.5" x="113" y="434.7344"/><rect fill="#FFFFFF" height="210.9453" style="stroke:none;stroke-width:1.0;" width="1219.5" x="113" y="483.4375"/><line style="stroke:#A80036;stroke-width:1.0;stroke-dasharray:5.0,5.0;" x1="27" x2="27" y1="117.2188" y2="718.3828"/><line style="stroke:#A80036;stroke-width:1.0;stroke-dasharray:5.0,5.0;" x1="157" x2="157" y1="117.2188" y2="718.3828"/><line style="stroke:#A80036;stroke-width:1.0;stroke-dasharray:5.0,5.0;" x1="306" x2="306" y1="117.2188" y2="718.3828"/><line style="stroke:#A80036;stroke-width:1.0;stroke-dasharray:5.0,5.0;" x1="1002.5" x2="1002.5" y1="117.2188" y2="718.3828"/><line style="stroke:#A80036;stroke-width:1.0;stroke-dasharray:5.0,5.0;" x1="1099.5" x2="1099.5" y1="117.2188" y2="718.3828"/><line style="stroke:#A80036;stroke-width:1.0;stroke-dasharray:5.0,5.0;" x1="1282.5" x2="1282.5" y1="117.2188" y2="718.3828"/><text fill="#000000" font-family="sans-serif" font-size="14" lengthAdjust="spacing" textLength="29" x="10" y="114.1426">User</text><ellipse cx="27.5" cy="42.6094" fill="#FEFECE" filter="url(#flksrde5xfkp)" rx="8" ry="8" style="stroke:#A80036;stroke-width:2.0;"/><path d="M27.5,50.6094 L27.5,77.6094 M14.5,58.6094 L40.5,58.6094 M27.5,77.6094 L14.5,92.6094 M27.5,77.6094 L40.5,92.6094 " fill="none" filter="url(#flksrde5xfkp)" style="stroke:#A80036;stroke-width:2.0;"/><rect fill="#FEFECE" filter="url(#flksrde5xfkp)" height="31.6094" style="stroke:#A80036;stroke-width:1.5;" width="65" x="123" y="80.6094"/><text fill="#000000" font-family="sans-serif" font-size="14" lengthAdjust="spacing" textLength="51" x="130" y="102.1426">Browser</text><rect fill="#FEFECE" filter="url(#flksrde5xfkp)" height="31.6094" style="stroke:#A80036;stroke-width:1.5;" width="113" x="248" y="80.6094"/><text fill="#000000" font-family="sans-serif" font-size="14" lengthAdjust="spacing" textLength="99" x="255" y="102.1426">:IndexController</text><rect fill="#FEFECE" filter="url(#flksrde5xfkp)" height="31.6094" style="stroke:#A80036;stroke-width:1.5;" width="82" x="959.5" y="80.6094"/><text fill="#000000" font-family="sans-serif" font-size="14" lengthAdjust="spacing" textLength="68" x="966.5" y="102.1426">:GetParam</text><rect fill="#FEFECE" filter="url(#flksrde5xfkp)" height="31.6094" style="stroke:#A80036;stroke-width:1.5;" width="85" x="1055.5" y="80.6094"/><text fill="#000000" font-family="sans-serif" font-size="14" lengthAdjust="spacing" textLength="71" x="1062.5" y="102.1426">:RoomDAO</text><rect fill="#FEFECE" filter="url(#flksrde5xfkp)" height="31.6094" style="stroke:#A80036;stroke-width:1.5;" width="75" x="1243.5" y="80.6094"/><text fill="#000000" font-family="sans-serif" font-size="14" lengthAdjust="spacing" textLength="61" x="1250.5" y="102.1426">Database</text><rect fill="#FFFFFF" filter="url(#flksrde5xfkp)" height="536.8125" style="stroke:#A80036;stroke-width:1.0;" width="10" x="152.5" y="149.5703"/><rect fill="#FFFFFF" filter="url(#flksrde5xfkp)" height="506.4609" style="stroke:#A80036;stroke-width:1.0;" width="10" x="301.5" y="179.9219"/><rect fill="#FFFFFF" filter="url(#flksrde5xfkp)" height="151.7578" style="stroke:#A80036;stroke-width:1.0;" width="10" x="997.5" y="210.2734"/><rect fill="#FFFFFF" filter="url(#flksrde5xfkp)" height="91.0547" style="stroke:#A80036;stroke-width:1.0;" width="10" x="1095" y="521.625"/><rect fill="#FFFFFF" filter="url(#flksrde5xfkp)" height="30.3516" style="stroke:#A80036;stroke-width:1.0;" width="10" x="1278" y="551.9766"/><line style="stroke:#A80036;stroke-width:1.0;" x1="150.5" x2="140.5" y1="149.5703" y2="145.5703"/><line style="stroke:#A80036;stroke-width:1.0;" x1="150.5" x2="140.5" y1="149.5703" y2="153.5703"/><line style="stroke:#A80036;stroke-width:1.0;" x1="27.5" x2="151.5" y1="149.5703" y2="149.5703"/><text fill="#000000" font-family="sans-serif" font-size="13" lengthAdjust="spacing" textLength="106" x="34.5" y="144.7139">Click on index link</text><line style="stroke:#A80036;stroke-width:1.0;" x1="299.5" x2="289.5" y1="179.9219" y2="175.9219"/><line style="stroke:#A80036;stroke-width:1.0;" x1="299.5" x2="289.5" y1="179.9219" y2="183.9219"/><line style="stroke:#A80036;stroke-width:1.0;" x1="162.5" x2="300.5" y1="179.9219" y2="179.9219"/><text fill="#000000" font-family="sans-serif" font-size="13" lengthAdjust="spacing" textLength="120" x="169.5" y="175.0654">GET /IndexController</text><line style="stroke:#A80036;stroke-width:1.0;" x1="995.5" x2="985.5" y1="210.2734" y2="206.2734"/><line style="stroke:#A80036;stroke-width:1.0;" x1="995.5" x2="985.5" y1="210.2734" y2="214.2734"/><line style="stroke:#A80036;stroke-width:1.0;" x1="311.5" x2="996.5" y1="210.2734" y2="210.2734"/><text fill="#000000" font-family="sans-serif" font-size="13" lengthAdjust="spacing" textLength="655" x="318.5" y="205.417">getStringParam(HttpServletRequest request, String field, String label, int min, int max,S tring defaultValue): String</text><line style="stroke:#A80036;stroke-width:1.0;" x1="311.5" x2="321.5" y1="240.625" y2="236.625"/><line style="stroke:#A80036;stroke-width:1.0;" x1="311.5" x2="321.5" y1="240.625" y2="244.625"/><line style="stroke:#A80036;stroke-width:1.0;stroke-dasharray:2.0,2.0;" x1="311.5" x2="996.5" y1="240.625" y2="240.625"/><text fill="#000000" font-family="sans-serif" font-size="13" lengthAdjust="spacing" textLength="97" x="328.5" y="235.7686">return priceOrder</text><line style="stroke:#A80036;stroke-width:1.0;" x1="995.5" x2="985.5" y1="270.9766" y2="266.9766"/><line style="stroke:#A80036;stroke-width:1.0;" x1="995.5" x2="985.5" y1="270.9766" y2="274.9766"/><line style="stroke:#A80036;stroke-width:1.0;" x1="311.5" x2="996.5" y1="270.9766" y2="270.9766"/><text fill="#000000" font-family="sans-serif" font-size="13" lengthAdjust="spacing" textLength="662" x="318.5" y="266.1201">getFloatParams(HttpServletRequest request, String field, String label, float min, float max, float defaultValue): Float</text><line style="stroke:#A80036;stroke-width:1.0;" x1="311.5" x2="321.5" y1="301.3281" y2="297.3281"/><line style="stroke:#A80036;stroke-width:1.0;" x1="311.5" x2="321.5" y1="301.3281" y2="305.3281"/><line style="stroke:#A80036;stroke-width:1.0;stroke-dasharray:2.0,2.0;" x1="311.5" x2="996.5" y1="301.3281" y2="301.3281"/><text fill="#000000" font-family="sans-serif" font-size="13" lengthAdjust="spacing" textLength="151" x="328.5" y="296.4717">return minPrice, maxPrice</text><line style="stroke:#A80036;stroke-width:1.0;" x1="995.5" x2="985.5" y1="331.6797" y2="327.6797"/><line style="stroke:#A80036;stroke-width:1.0;" x1="995.5" x2="985.5" y1="331.6797" y2="335.6797"/><line style="stroke:#A80036;stroke-width:1.0;" x1="311.5" x2="996.5" y1="331.6797" y2="331.6797"/><text fill="#000000" font-family="sans-serif" font-size="13" lengthAdjust="spacing" textLength="627" x="318.5" y="326.8232">getIntParams(HttpServletRequest request, String field, String label, int min, int max, int defaultValue): Integer</text><line style="stroke:#A80036;stroke-width:1.0;" x1="311.5" x2="321.5" y1="362.0313" y2="358.0313"/><line style="stroke:#A80036;stroke-width:1.0;" x1="311.5" x2="321.5" y1="362.0313" y2="366.0313"/><line style="stroke:#A80036;stroke-width:1.0;stroke-dasharray:2.0,2.0;" x1="311.5" x2="1001.5" y1="362.0313" y2="362.0313"/><text fill="#000000" font-family="sans-serif" font-size="13" lengthAdjust="spacing" textLength="115" x="328.5" y="357.1748">return numOfPeople</text><path d="M103,377.0313 L164,377.0313 L164,385.0313 L154,395.0313 L103,395.0313 L103,377.0313 " fill="#EEEEEE" style="stroke:#000000;stroke-width:1.0;"/><rect fill="none" height="324.3516" style="stroke:#000000;stroke-width:2.0;" width="1239.5" x="103" y="377.0313"/><text fill="#000000" font-family="sans-serif" font-size="13" font-weight="bold" lengthAdjust="spacing" textLength="16" x="118" y="391.5264">alt</text><text fill="#000000" font-family="sans-serif" font-size="11" font-weight="bold" lengthAdjust="spacing" textLength="69" x="179" y="390.4502">[invalid data]</text><line style="stroke:#A80036;stroke-width:1.0;" x1="162.5" x2="172.5" y1="417.7344" y2="413.7344"/><line style="stroke:#A80036;stroke-width:1.0;" x1="162.5" x2="172.5" y1="417.7344" y2="421.7344"/><line style="stroke:#A80036;stroke-width:1.0;stroke-dasharray:2.0,2.0;" x1="162.5" x2="300.5" y1="417.7344" y2="417.7344"/><text fill="#000000" font-family="sans-serif" font-size="13" lengthAdjust="spacing" textLength="97" x="179.5" y="412.8779">forward index.jsp</text><line style="stroke:#000000;stroke-width:1.0;stroke-dasharray:2.0,2.0;" x1="103" x2="1342.5" y1="426.7344" y2="426.7344"/><path d="M113,434.7344 L174,434.7344 L174,442.7344 L164,452.7344 L113,452.7344 L113,434.7344 " fill="#EEEEEE" style="stroke:#000000;stroke-width:1.0;"/><rect fill="none" height="259.6484" style="stroke:#000000;stroke-width:2.0;" width="1219.5" x="113" y="434.7344"/><text fill="#000000" font-family="sans-serif" font-size="13" font-weight="bold" lengthAdjust="spacing" textLength="16" x="128" y="449.2295">alt</text><text fill="#000000" font-family="sans-serif" font-size="11" font-weight="bold" lengthAdjust="spacing" textLength="64" x="189" y="448.1533">[min &gt; max]</text><line style="stroke:#A80036;stroke-width:1.0;" x1="162.5" x2="172.5" y1="475.4375" y2="471.4375"/><line style="stroke:#A80036;stroke-width:1.0;" x1="162.5" x2="172.5" y1="475.4375" y2="479.4375"/><line style="stroke:#A80036;stroke-width:1.0;stroke-dasharray:2.0,2.0;" x1="162.5" x2="300.5" y1="475.4375" y2="475.4375"/><text fill="#000000" font-family="sans-serif" font-size="13" lengthAdjust="spacing" textLength="97" x="179.5" y="470.5811">forward index.jsp</text><line style="stroke:#000000;stroke-width:1.0;stroke-dasharray:2.0,2.0;" x1="113" x2="1332.5" y1="484.4375" y2="484.4375"/><text fill="#000000" font-family="sans-serif" font-size="11" font-weight="bold" lengthAdjust="spacing" textLength="70" x="118" y="495.8564">[min &lt;= max]</text><line style="stroke:#A80036;stroke-width:1.0;" x1="1093" x2="1083" y1="521.625" y2="517.625"/><line style="stroke:#A80036;stroke-width:1.0;" x1="1093" x2="1083" y1="521.625" y2="525.625"/><line style="stroke:#A80036;stroke-width:1.0;" x1="311.5" x2="1094" y1="521.625" y2="521.625"/><text fill="#000000" font-family="sans-serif" font-size="13" lengthAdjust="spacing" textLength="685" x="318.5" y="516.7686">getRooms(int numOfPeople, float min, float max, String priceOrder, Integer status, boolean isSame): ArrayList&lt;Room&gt;</text><line style="stroke:#A80036;stroke-width:1.0;" x1="1276" x2="1266" y1="551.9766" y2="547.9766"/><line style="stroke:#A80036;stroke-width:1.0;" x1="1276" x2="1266" y1="551.9766" y2="555.9766"/><line style="stroke:#A80036;stroke-width:1.0;" x1="1105" x2="1277" y1="551.9766" y2="551.9766"/><text fill="#000000" font-family="sans-serif" font-size="13" lengthAdjust="spacing" textLength="154" x="1112" y="547.1201">executeQuery(): ResultSet</text><line style="stroke:#A80036;stroke-width:1.0;" x1="1105" x2="1115" y1="582.3281" y2="578.3281"/><line style="stroke:#A80036;stroke-width:1.0;" x1="1105" x2="1115" y1="582.3281" y2="586.3281"/><line style="stroke:#A80036;stroke-width:1.0;stroke-dasharray:2.0,2.0;" x1="1105" x2="1282" y1="582.3281" y2="582.3281"/><text fill="#000000" font-family="sans-serif" font-size="13" lengthAdjust="spacing" textLength="109" x="1122" y="577.4717">return ResultSet rs</text><line style="stroke:#A80036;stroke-width:1.0;" x1="311.5" x2="321.5" y1="612.6797" y2="608.6797"/><line style="stroke:#A80036;stroke-width:1.0;" x1="311.5" x2="321.5" y1="612.6797" y2="616.6797"/><line style="stroke:#A80036;stroke-width:1.0;stroke-dasharray:2.0,2.0;" x1="311.5" x2="1099" y1="612.6797" y2="612.6797"/><text fill="#000000" font-family="sans-serif" font-size="13" lengthAdjust="spacing" textLength="139" x="328.5" y="607.8232">return ArrayList&lt;Room&gt;</text><line style="stroke:#A80036;stroke-width:1.0;" x1="311.5" x2="353.5" y1="643.0313" y2="643.0313"/><line style="stroke:#A80036;stroke-width:1.0;" x1="353.5" x2="353.5" y1="643.0313" y2="656.0313"/><line style="stroke:#A80036;stroke-width:1.0;" x1="312.5" x2="353.5" y1="656.0313" y2="656.0313"/><line style="stroke:#A80036;stroke-width:1.0;" x1="312.5" x2="322.5" y1="656.0313" y2="652.0313"/><line style="stroke:#A80036;stroke-width:1.0;" x1="312.5" x2="322.5" y1="656.0313" y2="660.0313"/><text fill="#000000" font-family="sans-serif" font-size="13" lengthAdjust="spacing" textLength="358" x="318.5" y="638.1748">HttpServletRequest.setAttribute(String arg0, Object arg1): void</text><line style="stroke:#A80036;stroke-width:1.0;" x1="157.5" x2="167.5" y1="686.3828" y2="682.3828"/><line style="stroke:#A80036;stroke-width:1.0;" x1="157.5" x2="167.5" y1="686.3828" y2="690.3828"/><line style="stroke:#A80036;stroke-width:1.0;stroke-dasharray:2.0,2.0;" x1="157.5" x2="305.5" y1="686.3828" y2="686.3828"/><text fill="#000000" font-family="sans-serif" font-size="13" lengthAdjust="spacing" textLength="97" x="174.5" y="681.5264">forward index.jsp</text><!--MD5=[81e666d9292ea55f1157fd18e2548090]
@startuml index

hide footbox
mainframe <b>sd</b> Index Page
actor User
participant "Browser" as Browser
participant ":IndexController" as IndexController
participant ":GetParam" as GetParam
participant ":RoomDAO" as RoomDAO
participant "Database" as DB


User ->> Browser: Click on index link
activate Browser

Browser ->> IndexController: GET /IndexController
activate IndexController

    IndexController ->> GetParam: getStringParam(HttpServletRequest request, String field, String label, int min, int max,S tring defaultValue): String
    activate GetParam
    GetParam - ->> IndexController: return priceOrder 
    IndexController ->> GetParam: getFloatParams(HttpServletRequest request, String field, String label, float min, float max, float defaultValue): Float
    GetParam - ->> IndexController: return minPrice, maxPrice
    IndexController ->> GetParam: getIntParams(HttpServletRequest request, String field, String label, int min, int max, int defaultValue): Integer   
    GetParam - ->> IndexController: return numOfPeople
    deactivate GetParam
alt invalid data
    IndexController - ->> Browser: forward index.jsp
else
    alt min > max
        IndexController - ->> Browser: forward index.jsp
    else min <= max
        IndexController ->> RoomDAO: getRooms(int numOfPeople, float min, float max, String priceOrder, Integer status, boolean isSame): ArrayList<Room>
        activate RoomDAO
        RoomDAO ->> DB: executeQuery(): ResultSet
        activate DB
        DB - ->> RoomDAO: return ResultSet rs
        deactivate DB
        RoomDAO - ->> IndexController: return ArrayList<Room>
        deactivate RoomDAO
        IndexController ->> IndexController: HttpServletRequest.setAttribute(String arg0, Object arg1): void
        IndexController - ->> Browser: forward index.jsp
        deactivate IndexController
        deactivate Browser
    end
end
@enduml

PlantUML version 1.2021.00(Sun Jan 10 17:25:05 ICT 2021)
(GPL source distribution)
Java Runtime: OpenJDK Runtime Environment
JVM: OpenJDK 64-Bit Server VM
Default Encoding: Cp1252
Language: en
Country: US
--></g></svg>