<?xml version="1.0" encoding="UTF-8" standalone="no"?><svg xmlns="http://www.w3.org/2000/svg" xmlns:xlink="http://www.w3.org/1999/xlink" contentScriptType="application/ecmascript" contentStyleType="text/css" height="334px" preserveAspectRatio="none" style="width:576px;height:334px;background:#FFFFFF;" version="1.1" viewBox="0 0 576 334" width="576px" zoomAndPan="magnify"><defs><filter height="300%" id="f16127xlduy5qk" width="300%" x="-1" y="-1"><feGaussianBlur result="blurOut" stdDeviation="2.0"/><feColorMatrix in="blurOut" result="blurOut2" type="matrix" values="0 0 0 0 0 0 0 0 0 0 0 0 0 0 0 0 0 0 .4 0"/><feOffset dx="4.0" dy="4.0" in="blurOut2" result="blurOut3"/><feBlend in="SourceGraphic" in2="blurOut3" mode="normal"/></filter></defs><g><rect fill="#FFFFFF" filter="url(#f16127xlduy5qk)" height="317.9766" style="stroke:#000000;stroke-width:1.0;" width="559.5" x="5" y="5"/><path d="M135,5 L135,15.6094 L125,25.6094 L5,25.6094 " fill="none" style="stroke:#000000;stroke-width:1.0;"/><text fill="#000000" font-family="sans-serif" font-size="14" font-weight="bold" lengthAdjust="spacing" textLength="17" x="8" y="20.5332">sd</text><text fill="#000000" font-family="sans-serif" font-size="14" lengthAdjust="spacing" textLength="99" x="29" y="20.5332">Logout Account</text><rect fill="#FFFFFF" filter="url(#f16127xlduy5qk)" height="156.4063" style="stroke:#A80036;stroke-width:1.0;" width="10" x="156.5" y="149.5703"/><rect fill="#FFFFFF" filter="url(#f16127xlduy5qk)" height="117.0547" style="stroke:#A80036;stroke-width:1.0;" width="10" x="313.5" y="179.9219"/><line style="stroke:#A80036;stroke-width:1.0;stroke-dasharray:5.0,5.0;" x1="27" x2="27" y1="117.2188" y2="314.9766"/><line style="stroke:#A80036;stroke-width:1.0;stroke-dasharray:5.0,5.0;" x1="161" x2="161" y1="117.2188" y2="314.9766"/><line style="stroke:#A80036;stroke-width:1.0;stroke-dasharray:5.0,5.0;" x1="318.5" x2="318.5" y1="117.2188" y2="314.9766"/><text fill="#000000" font-family="sans-serif" font-size="14" lengthAdjust="spacing" textLength="29" x="10" y="114.1426">User</text><ellipse cx="27.5" cy="42.6094" fill="#FEFECE" filter="url(#f16127xlduy5qk)" rx="8" ry="8" style="stroke:#A80036;stroke-width:2.0;"/><path d="M27.5,50.6094 L27.5,77.6094 M14.5,58.6094 L40.5,58.6094 M27.5,77.6094 L14.5,92.6094 M27.5,77.6094 L40.5,92.6094 " fill="none" filter="url(#f16127xlduy5qk)" style="stroke:#A80036;stroke-width:2.0;"/><rect fill="#FEFECE" filter="url(#f16127xlduy5qk)" height="31.6094" style="stroke:#A80036;stroke-width:1.5;" width="65" x="127" y="80.6094"/><text fill="#000000" font-family="sans-serif" font-size="14" lengthAdjust="spacing" textLength="51" x="134" y="102.1426">Browser</text><rect fill="#FEFECE" filter="url(#f16127xlduy5qk)" height="31.6094" style="stroke:#A80036;stroke-width:1.5;" width="124" x="254.5" y="80.6094"/><text fill="#000000" font-family="sans-serif" font-size="14" lengthAdjust="spacing" textLength="110" x="261.5" y="102.1426">:LogoutController</text><rect fill="#FFFFFF" filter="url(#f16127xlduy5qk)" height="156.4063" style="stroke:#A80036;stroke-width:1.0;" width="10" x="156.5" y="149.5703"/><rect fill="#FFFFFF" filter="url(#f16127xlduy5qk)" height="117.0547" style="stroke:#A80036;stroke-width:1.0;" width="10" x="313.5" y="179.9219"/><line style="stroke:#A80036;stroke-width:1.0;" x1="154.5" x2="144.5" y1="149.5703" y2="145.5703"/><line style="stroke:#A80036;stroke-width:1.0;" x1="154.5" x2="144.5" y1="149.5703" y2="153.5703"/><line style="stroke:#A80036;stroke-width:1.0;" x1="27.5" x2="155.5" y1="149.5703" y2="149.5703"/><text fill="#000000" font-family="sans-serif" font-size="13" lengthAdjust="spacing" textLength="110" x="34.5" y="144.7139">Click on logout link</text><line style="stroke:#A80036;stroke-width:1.0;" x1="311.5" x2="301.5" y1="179.9219" y2="175.9219"/><line style="stroke:#A80036;stroke-width:1.0;" x1="311.5" x2="301.5" y1="179.9219" y2="183.9219"/><line style="stroke:#A80036;stroke-width:1.0;" x1="166.5" x2="312.5" y1="179.9219" y2="179.9219"/><text fill="#000000" font-family="sans-serif" font-size="13" lengthAdjust="spacing" textLength="128" x="173.5" y="175.0654">GET /LogoutController</text><line style="stroke:#A80036;stroke-width:1.0;" x1="323.5" x2="365.5" y1="210.2734" y2="210.2734"/><line style="stroke:#A80036;stroke-width:1.0;" x1="365.5" x2="365.5" y1="210.2734" y2="223.2734"/><line style="stroke:#A80036;stroke-width:1.0;" x1="324.5" x2="365.5" y1="223.2734" y2="223.2734"/><line style="stroke:#A80036;stroke-width:1.0;" x1="324.5" x2="334.5" y1="223.2734" y2="219.2734"/><line style="stroke:#A80036;stroke-width:1.0;" x1="324.5" x2="334.5" y1="223.2734" y2="227.2734"/><text fill="#000000" font-family="sans-serif" font-size="13" lengthAdjust="spacing" textLength="227" x="330.5" y="205.417">HttpSession.getSession(): HttpSession</text><line style="stroke:#A80036;stroke-width:1.0;" x1="323.5" x2="365.5" y1="253.625" y2="253.625"/><line style="stroke:#A80036;stroke-width:1.0;" x1="365.5" x2="365.5" y1="253.625" y2="266.625"/><line style="stroke:#A80036;stroke-width:1.0;" x1="324.5" x2="365.5" y1="266.625" y2="266.625"/><line style="stroke:#A80036;stroke-width:1.0;" x1="324.5" x2="334.5" y1="266.625" y2="262.625"/><line style="stroke:#A80036;stroke-width:1.0;" x1="324.5" x2="334.5" y1="266.625" y2="270.625"/><text fill="#000000" font-family="sans-serif" font-size="13" lengthAdjust="spacing" textLength="166" x="330.5" y="248.7686">HttpSession.invalidate(): void</text><line style="stroke:#A80036;stroke-width:1.0;" x1="166.5" x2="176.5" y1="296.9766" y2="292.9766"/><line style="stroke:#A80036;stroke-width:1.0;" x1="166.5" x2="176.5" y1="296.9766" y2="300.9766"/><line style="stroke:#A80036;stroke-width:1.0;stroke-dasharray:2.0,2.0;" x1="166.5" x2="317.5" y1="296.9766" y2="296.9766"/><text fill="#000000" font-family="sans-serif" font-size="13" lengthAdjust="spacing" textLength="93" x="183.5" y="292.1201">forward login.jsp</text><!--MD5=[1365f8f4d6babcdc47d0ff190bcb9ac7]
@startuml logoutAccount

hide footbox
mainframe <b>sd</b> Logout Account
actor User
participant "Browser" as Browser
participant ":LogoutController" as LogoutController



User ->> Browser: Click on logout link
activate Browser

Browser ->> LogoutController: GET /LogoutController
activate LogoutController
LogoutController ->> LogoutController:  HttpSession.getSession(): HttpSession
LogoutController ->> LogoutController:  HttpSession.invalidate(): void
LogoutController - ->> Browser: forward login.jsp
deactivate LogoutController


@enduml

PlantUML version 1.2021.7(Sun May 23 19:40:07 ICT 2021)
(GPL source distribution)
Java Runtime: OpenJDK Runtime Environment
JVM: OpenJDK 64-Bit Server VM
Default Encoding: Cp1252
Language: en
Country: US
--></g></svg>