<?xml version="1.0" encoding="UTF-8" standalone="no"?><svg xmlns="http://www.w3.org/2000/svg" xmlns:xlink="http://www.w3.org/1999/xlink" contentScriptType="application/ecmascript" contentStyleType="text/css" height="1094px" preserveAspectRatio="none" style="width:2686px;height:1094px;background:#FFFFFF;" version="1.1" viewBox="0 0 2686 1094" width="2686px" zoomAndPan="magnify"><defs><filter height="300%" id="f1gcw7jchp6uuh" width="300%" x="-1" y="-1"><feGaussianBlur result="blurOut" stdDeviation="2.0"/><feColorMatrix in="blurOut" result="blurOut2" type="matrix" values="0 0 0 0 0 0 0 0 0 0 0 0 0 0 0 0 0 0 .4 0"/><feOffset dx="4.0" dy="4.0" in="blurOut2" result="blurOut3"/><feBlend in="SourceGraphic" in2="blurOut3" mode="normal"/></filter></defs><g><rect fill="#FFFFFF" filter="url(#f1gcw7jchp6uuh)" height="1077.3828" style="stroke:#000000;stroke-width:1.0;" width="2669" x="5" y="5"/><path d="M280,5 L280,15.6094 L270,25.6094 L5,25.6094 " fill="none" style="stroke:#000000;stroke-width:1.0;"/><text fill="#000000" font-family="sans-serif" font-size="14" font-weight="bold" lengthAdjust="spacing" textLength="17" x="8" y="20.5332">sd</text><text fill="#000000" font-family="sans-serif" font-size="14" lengthAdjust="spacing" textLength="244" x="29" y="20.5332">View Booking Information for Customer</text><rect fill="#FFFFFF" filter="url(#f1gcw7jchp6uuh)" height="885.8125" style="stroke:#A80036;stroke-width:1.0;" width="10" x="198.5" y="149.5703"/><rect fill="#FFFFFF" filter="url(#f1gcw7jchp6uuh)" height="323" style="stroke:#A80036;stroke-width:1.0;" width="10" x="391.5" y="179.9219"/><rect fill="#FFFFFF" filter="url(#f1gcw7jchp6uuh)" height="218.9453" style="stroke:#A80036;stroke-width:1.0;" width="10" x="1141.5" y="253.625"/><rect fill="#FFFFFF" filter="url(#f1gcw7jchp6uuh)" height="532.4609" style="stroke:#A80036;stroke-width:1.0;" width="10" x="1600.5" y="502.9219"/><rect fill="#FFFFFF" filter="url(#f1gcw7jchp6uuh)" height="91.0547" style="stroke:#A80036;stroke-width:1.0;" width="10" x="2286.5" y="533.2734"/><rect fill="#FFFFFF" filter="url(#f1gcw7jchp6uuh)" height="91.0547" style="stroke:#A80036;stroke-width:1.0;" width="10" x="2402.5" y="870.625"/><rect fill="#FFFFFF" filter="url(#f1gcw7jchp6uuh)" height="30.3516" style="stroke:#A80036;stroke-width:1.0;" width="10" x="2585.5" y="900.9766"/><rect fill="#FFFFFF" filter="url(#f1gcw7jchp6uuh)" height="702.0547" style="stroke:#000000;stroke-width:2.0;" width="2521" x="139" y="355.3281"/><rect fill="#FFFFFF" height="623" style="stroke:none;stroke-width:1.0;" width="2521" x="139" y="434.3828"/><rect fill="#FFFFFF" filter="url(#f1gcw7jchp6uuh)" height="411.0547" style="stroke:#000000;stroke-width:2.0;" width="2501" x="149" y="639.3281"/><rect fill="#FFFFFF" height="362.3516" style="stroke:none;stroke-width:1.0;" width="2501" x="149" y="688.0313"/><rect fill="#FFFFFF" filter="url(#f1gcw7jchp6uuh)" height="303" style="stroke:#000000;stroke-width:2.0;" width="2481" x="159" y="740.3828"/><rect fill="#FFFFFF" height="254.2969" style="stroke:none;stroke-width:1.0;" width="2481" x="159" y="789.0859"/><line style="stroke:#A80036;stroke-width:1.0;stroke-dasharray:5.0,5.0;" x1="27" x2="27" y1="117.2188" y2="1074.3828"/><line style="stroke:#A80036;stroke-width:1.0;stroke-dasharray:5.0,5.0;" x1="203" x2="203" y1="117.2188" y2="1074.3828"/><line style="stroke:#A80036;stroke-width:1.0;stroke-dasharray:5.0,5.0;" x1="396" x2="396" y1="117.2188" y2="1074.3828"/><line style="stroke:#A80036;stroke-width:1.0;stroke-dasharray:5.0,5.0;" x1="1146" x2="1146" y1="117.2188" y2="1074.3828"/><line style="stroke:#A80036;stroke-width:1.0;stroke-dasharray:5.0,5.0;" x1="1605.5" x2="1605.5" y1="117.2188" y2="1074.3828"/><line style="stroke:#A80036;stroke-width:1.0;stroke-dasharray:5.0,5.0;" x1="2291.5" x2="2291.5" y1="117.2188" y2="1074.3828"/><line style="stroke:#A80036;stroke-width:1.0;stroke-dasharray:5.0,5.0;" x1="2407.5" x2="2407.5" y1="117.2188" y2="1074.3828"/><line style="stroke:#A80036;stroke-width:1.0;stroke-dasharray:5.0,5.0;" x1="2590" x2="2590" y1="117.2188" y2="1074.3828"/><text fill="#000000" font-family="sans-serif" font-size="14" lengthAdjust="spacing" textLength="29" x="10" y="114.1426">User</text><ellipse cx="27.5" cy="42.6094" fill="#FEFECE" filter="url(#f1gcw7jchp6uuh)" rx="8" ry="8" style="stroke:#A80036;stroke-width:2.0;"/><path d="M27.5,50.6094 L27.5,77.6094 M14.5,58.6094 L40.5,58.6094 M27.5,77.6094 L14.5,92.6094 M27.5,77.6094 L40.5,92.6094 " fill="none" filter="url(#f1gcw7jchp6uuh)" style="stroke:#A80036;stroke-width:2.0;"/><rect fill="#FEFECE" filter="url(#f1gcw7jchp6uuh)" height="31.6094" style="stroke:#A80036;stroke-width:1.5;" width="65" x="169" y="80.6094"/><text fill="#000000" font-family="sans-serif" font-size="14" lengthAdjust="spacing" textLength="51" x="176" y="102.1426">Browser</text><rect fill="#FEFECE" filter="url(#f1gcw7jchp6uuh)" height="31.6094" style="stroke:#A80036;stroke-width:1.5;" width="135" x="327" y="80.6094"/><text fill="#000000" font-family="sans-serif" font-size="14" lengthAdjust="spacing" textLength="121" x="334" y="102.1426">:CommonRoleFilter</text><rect fill="#FEFECE" filter="url(#f1gcw7jchp6uuh)" height="31.6094" style="stroke:#A80036;stroke-width:1.5;" width="59" x="1115" y="80.6094"/><text fill="#000000" font-family="sans-serif" font-size="14" lengthAdjust="spacing" textLength="45" x="1122" y="102.1426">:Helper</text><rect fill="#FEFECE" filter="url(#f1gcw7jchp6uuh)" height="31.6094" style="stroke:#A80036;stroke-width:1.5;" width="160" x="1523.5" y="80.6094"/><text fill="#000000" font-family="sans-serif" font-size="14" lengthAdjust="spacing" textLength="146" x="1530.5" y="102.1426">:ViewBookingController</text><rect fill="#FEFECE" filter="url(#f1gcw7jchp6uuh)" height="31.6094" style="stroke:#A80036;stroke-width:1.5;" width="82" x="2248.5" y="80.6094"/><text fill="#000000" font-family="sans-serif" font-size="14" lengthAdjust="spacing" textLength="68" x="2255.5" y="102.1426">:GetParam</text><rect fill="#FEFECE" filter="url(#f1gcw7jchp6uuh)" height="31.6094" style="stroke:#A80036;stroke-width:1.5;" width="122" x="2344.5" y="80.6094"/><text fill="#000000" font-family="sans-serif" font-size="14" lengthAdjust="spacing" textLength="108" x="2351.5" y="102.1426">:BookingInfoDAO</text><rect fill="#FEFECE" filter="url(#f1gcw7jchp6uuh)" height="31.6094" style="stroke:#A80036;stroke-width:1.5;" width="75" x="2551" y="80.6094"/><text fill="#000000" font-family="sans-serif" font-size="14" lengthAdjust="spacing" textLength="61" x="2558" y="102.1426">Database</text><rect fill="#FFFFFF" filter="url(#f1gcw7jchp6uuh)" height="885.8125" style="stroke:#A80036;stroke-width:1.0;" width="10" x="198.5" y="149.5703"/><rect fill="#FFFFFF" filter="url(#f1gcw7jchp6uuh)" height="323" style="stroke:#A80036;stroke-width:1.0;" width="10" x="391.5" y="179.9219"/><rect fill="#FFFFFF" filter="url(#f1gcw7jchp6uuh)" height="218.9453" style="stroke:#A80036;stroke-width:1.0;" width="10" x="1141.5" y="253.625"/><rect fill="#FFFFFF" filter="url(#f1gcw7jchp6uuh)" height="532.4609" style="stroke:#A80036;stroke-width:1.0;" width="10" x="1600.5" y="502.9219"/><rect fill="#FFFFFF" filter="url(#f1gcw7jchp6uuh)" height="91.0547" style="stroke:#A80036;stroke-width:1.0;" width="10" x="2286.5" y="533.2734"/><rect fill="#FFFFFF" filter="url(#f1gcw7jchp6uuh)" height="91.0547" style="stroke:#A80036;stroke-width:1.0;" width="10" x="2402.5" y="870.625"/><rect fill="#FFFFFF" filter="url(#f1gcw7jchp6uuh)" height="30.3516" style="stroke:#A80036;stroke-width:1.0;" width="10" x="2585.5" y="900.9766"/><line style="stroke:#A80036;stroke-width:1.0;" x1="196.5" x2="186.5" y1="149.5703" y2="145.5703"/><line style="stroke:#A80036;stroke-width:1.0;" x1="196.5" x2="186.5" y1="149.5703" y2="153.5703"/><line style="stroke:#A80036;stroke-width:1.0;" x1="27.5" x2="197.5" y1="149.5703" y2="149.5703"/><text fill="#000000" font-family="sans-serif" font-size="13" lengthAdjust="spacing" textLength="152" x="34.5" y="144.7139">Click on view booking Link</text><line style="stroke:#A80036;stroke-width:1.0;" x1="389.5" x2="379.5" y1="179.9219" y2="175.9219"/><line style="stroke:#A80036;stroke-width:1.0;" x1="389.5" x2="379.5" y1="179.9219" y2="183.9219"/><line style="stroke:#A80036;stroke-width:1.0;" x1="208.5" x2="390.5" y1="179.9219" y2="179.9219"/><text fill="#000000" font-family="sans-serif" font-size="13" lengthAdjust="spacing" textLength="164" x="215.5" y="175.0654">GET /ViewBookingController</text><line style="stroke:#A80036;stroke-width:1.0;" x1="401.5" x2="443.5" y1="210.2734" y2="210.2734"/><line style="stroke:#A80036;stroke-width:1.0;" x1="443.5" x2="443.5" y1="210.2734" y2="223.2734"/><line style="stroke:#A80036;stroke-width:1.0;" x1="402.5" x2="443.5" y1="223.2734" y2="223.2734"/><line style="stroke:#A80036;stroke-width:1.0;" x1="402.5" x2="412.5" y1="223.2734" y2="219.2734"/><line style="stroke:#A80036;stroke-width:1.0;" x1="402.5" x2="412.5" y1="223.2734" y2="227.2734"/><text fill="#000000" font-family="sans-serif" font-size="13" lengthAdjust="spacing" textLength="211" x="408.5" y="205.417">Context.lookup(String name): Object</text><line style="stroke:#A80036;stroke-width:1.0;" x1="1139.5" x2="1129.5" y1="253.625" y2="249.625"/><line style="stroke:#A80036;stroke-width:1.0;" x1="1139.5" x2="1129.5" y1="253.625" y2="257.625"/><line style="stroke:#A80036;stroke-width:1.0;" x1="401.5" x2="1140.5" y1="253.625" y2="253.625"/><text fill="#000000" font-family="sans-serif" font-size="13" lengthAdjust="spacing" textLength="721" x="408.5" y="248.7686">protectedRouter(HttpServletRequest request, HttpServletResponse response, int minRole, int maxRole, String page): boolean</text><line style="stroke:#A80036;stroke-width:1.0;" x1="1151.5" x2="1193.5" y1="283.9766" y2="283.9766"/><line style="stroke:#A80036;stroke-width:1.0;" x1="1193.5" x2="1193.5" y1="283.9766" y2="296.9766"/><line style="stroke:#A80036;stroke-width:1.0;" x1="1152.5" x2="1193.5" y1="296.9766" y2="296.9766"/><line style="stroke:#A80036;stroke-width:1.0;" x1="1152.5" x2="1162.5" y1="296.9766" y2="292.9766"/><line style="stroke:#A80036;stroke-width:1.0;" x1="1152.5" x2="1162.5" y1="296.9766" y2="300.9766"/><text fill="#000000" font-family="sans-serif" font-size="13" lengthAdjust="spacing" textLength="260" x="1158.5" y="279.1201">isLogin(HttpServletRequest request): boolean</text><line style="stroke:#A80036;stroke-width:1.0;" x1="1151.5" x2="1193.5" y1="327.3281" y2="327.3281"/><line style="stroke:#A80036;stroke-width:1.0;" x1="1193.5" x2="1193.5" y1="327.3281" y2="340.3281"/><line style="stroke:#A80036;stroke-width:1.0;" x1="1152.5" x2="1193.5" y1="340.3281" y2="340.3281"/><line style="stroke:#A80036;stroke-width:1.0;" x1="1152.5" x2="1162.5" y1="340.3281" y2="336.3281"/><line style="stroke:#A80036;stroke-width:1.0;" x1="1152.5" x2="1162.5" y1="340.3281" y2="344.3281"/><text fill="#000000" font-family="sans-serif" font-size="13" lengthAdjust="spacing" textLength="435" x="1158.5" y="322.4717">correctRole(HttpServletRequest request, int minRole, int maxRole): boolean</text><path d="M139,355.3281 L200,355.3281 L200,363.3281 L190,373.3281 L139,373.3281 L139,355.3281 " fill="#EEEEEE" style="stroke:#000000;stroke-width:1.0;"/><rect fill="none" height="702.0547" style="stroke:#000000;stroke-width:2.0;" width="2521" x="139" y="355.3281"/><text fill="#000000" font-family="sans-serif" font-size="13" font-weight="bold" lengthAdjust="spacing" textLength="16" x="154" y="369.8232">alt</text><text fill="#000000" font-family="sans-serif" font-size="11" font-weight="bold" lengthAdjust="spacing" textLength="73" x="215" y="368.7471">[return false]</text><line style="stroke:#A80036;stroke-width:1.0;" x1="401.5" x2="411.5" y1="396.0313" y2="392.0313"/><line style="stroke:#A80036;stroke-width:1.0;" x1="401.5" x2="411.5" y1="396.0313" y2="400.0313"/><line style="stroke:#A80036;stroke-width:1.0;stroke-dasharray:2.0,2.0;" x1="401.5" x2="1140.5" y1="396.0313" y2="396.0313"/><text fill="#000000" font-family="sans-serif" font-size="13" lengthAdjust="spacing" textLength="93" x="418.5" y="391.1748">forward login.jsp</text><line style="stroke:#A80036;stroke-width:1.0;" x1="208.5" x2="218.5" y1="426.3828" y2="422.3828"/><line style="stroke:#A80036;stroke-width:1.0;" x1="208.5" x2="218.5" y1="426.3828" y2="430.3828"/><line style="stroke:#A80036;stroke-width:1.0;stroke-dasharray:2.0,2.0;" x1="208.5" x2="390.5" y1="426.3828" y2="426.3828"/><text fill="#000000" font-family="sans-serif" font-size="13" lengthAdjust="spacing" textLength="93" x="225.5" y="421.5264">forward login.jsp</text><line style="stroke:#000000;stroke-width:1.0;stroke-dasharray:2.0,2.0;" x1="139" x2="2660" y1="435.3828" y2="435.3828"/><text fill="#000000" font-family="sans-serif" font-size="11" font-weight="bold" lengthAdjust="spacing" textLength="69" x="144" y="446.8018">[return true]</text><line style="stroke:#A80036;stroke-width:1.0;" x1="401.5" x2="411.5" y1="472.5703" y2="468.5703"/><line style="stroke:#A80036;stroke-width:1.0;" x1="401.5" x2="411.5" y1="472.5703" y2="476.5703"/><line style="stroke:#A80036;stroke-width:1.0;stroke-dasharray:2.0,2.0;" x1="401.5" x2="1145.5" y1="472.5703" y2="472.5703"/><text fill="#000000" font-family="sans-serif" font-size="13" lengthAdjust="spacing" textLength="59" x="418.5" y="467.7139">return true</text><line style="stroke:#A80036;stroke-width:1.0;" x1="1598.5" x2="1588.5" y1="502.9219" y2="498.9219"/><line style="stroke:#A80036;stroke-width:1.0;" x1="1598.5" x2="1588.5" y1="502.9219" y2="506.9219"/><line style="stroke:#A80036;stroke-width:1.0;" x1="396.5" x2="1599.5" y1="502.9219" y2="502.9219"/><text fill="#000000" font-family="sans-serif" font-size="13" lengthAdjust="spacing" textLength="331" x="403.5" y="498.0654">doFilter(ServletRequest arg0, ServletResponse arg1): void</text><line style="stroke:#A80036;stroke-width:1.0;" x1="2284.5" x2="2274.5" y1="533.2734" y2="529.2734"/><line style="stroke:#A80036;stroke-width:1.0;" x1="2284.5" x2="2274.5" y1="533.2734" y2="537.2734"/><line style="stroke:#A80036;stroke-width:1.0;" x1="1610.5" x2="2285.5" y1="533.2734" y2="533.2734"/><text fill="#000000" font-family="sans-serif" font-size="13" lengthAdjust="spacing" textLength="550" x="1617.5" y="528.417">getDateParams(HttpServletRequest request, String field, String label, String defaultValue): Date</text><line style="stroke:#A80036;stroke-width:1.0;" x1="1610.5" x2="1620.5" y1="563.625" y2="559.625"/><line style="stroke:#A80036;stroke-width:1.0;" x1="1610.5" x2="1620.5" y1="563.625" y2="567.625"/><line style="stroke:#A80036;stroke-width:1.0;stroke-dasharray:2.0,2.0;" x1="1610.5" x2="2285.5" y1="563.625" y2="563.625"/><text fill="#000000" font-family="sans-serif" font-size="13" lengthAdjust="spacing" textLength="146" x="1627.5" y="558.7686">return startDate, endDate</text><line style="stroke:#A80036;stroke-width:1.0;" x1="2284.5" x2="2274.5" y1="593.9766" y2="589.9766"/><line style="stroke:#A80036;stroke-width:1.0;" x1="2284.5" x2="2274.5" y1="593.9766" y2="597.9766"/><line style="stroke:#A80036;stroke-width:1.0;" x1="1610.5" x2="2285.5" y1="593.9766" y2="593.9766"/><text fill="#000000" font-family="sans-serif" font-size="13" lengthAdjust="spacing" textLength="652" x="1617.5" y="589.1201">getIntParams(HttpServletRequest request, String field, String label, int min, int max, Integer defaultValue): Integer</text><line style="stroke:#A80036;stroke-width:1.0;" x1="1610.5" x2="1620.5" y1="624.3281" y2="620.3281"/><line style="stroke:#A80036;stroke-width:1.0;" x1="1610.5" x2="1620.5" y1="624.3281" y2="628.3281"/><line style="stroke:#A80036;stroke-width:1.0;stroke-dasharray:2.0,2.0;" x1="1610.5" x2="2290.5" y1="624.3281" y2="624.3281"/><text fill="#000000" font-family="sans-serif" font-size="13" lengthAdjust="spacing" textLength="120" x="1627.5" y="619.4717">return roomId, status</text><path d="M149,639.3281 L210,639.3281 L210,647.3281 L200,657.3281 L149,657.3281 L149,639.3281 " fill="#EEEEEE" style="stroke:#000000;stroke-width:1.0;"/><rect fill="none" height="411.0547" style="stroke:#000000;stroke-width:2.0;" width="2501" x="149" y="639.3281"/><text fill="#000000" font-family="sans-serif" font-size="13" font-weight="bold" lengthAdjust="spacing" textLength="16" x="164" y="653.8232">alt</text><text fill="#000000" font-family="sans-serif" font-size="11" font-weight="bold" lengthAdjust="spacing" textLength="69" x="225" y="652.7471">[invalid data]</text><line style="stroke:#A80036;stroke-width:1.0;" x1="208.5" x2="218.5" y1="680.0313" y2="676.0313"/><line style="stroke:#A80036;stroke-width:1.0;" x1="208.5" x2="218.5" y1="680.0313" y2="684.0313"/><line style="stroke:#A80036;stroke-width:1.0;stroke-dasharray:2.0,2.0;" x1="208.5" x2="1599.5" y1="680.0313" y2="680.0313"/><text fill="#000000" font-family="sans-serif" font-size="13" lengthAdjust="spacing" textLength="137" x="225.5" y="675.1748">forward viewBooking.jsp</text><line style="stroke:#000000;stroke-width:1.0;stroke-dasharray:2.0,2.0;" x1="149" x2="2650" y1="689.0313" y2="689.0313"/><line style="stroke:#A80036;stroke-width:1.0;" x1="1610.5" x2="1652.5" y1="712.3828" y2="712.3828"/><line style="stroke:#A80036;stroke-width:1.0;" x1="1652.5" x2="1652.5" y1="712.3828" y2="725.3828"/><line style="stroke:#A80036;stroke-width:1.0;" x1="1611.5" x2="1652.5" y1="725.3828" y2="725.3828"/><line style="stroke:#A80036;stroke-width:1.0;" x1="1611.5" x2="1621.5" y1="725.3828" y2="721.3828"/><line style="stroke:#A80036;stroke-width:1.0;" x1="1611.5" x2="1621.5" y1="725.3828" y2="729.3828"/><text fill="#000000" font-family="sans-serif" font-size="13" lengthAdjust="spacing" textLength="578" x="1617.5" y="707.5264">Validator.computeNumberOfDay(HttpServletRequest request, Date startDate, Date endDate): Integer</text><path d="M159,740.3828 L220,740.3828 L220,748.3828 L210,758.3828 L159,758.3828 L159,740.3828 " fill="#EEEEEE" style="stroke:#000000;stroke-width:1.0;"/><rect fill="none" height="303" style="stroke:#000000;stroke-width:2.0;" width="2481" x="159" y="740.3828"/><text fill="#000000" font-family="sans-serif" font-size="13" font-weight="bold" lengthAdjust="spacing" textLength="16" x="174" y="754.8779">alt</text><text fill="#000000" font-family="sans-serif" font-size="11" font-weight="bold" lengthAdjust="spacing" textLength="70" x="235" y="753.8018">[invalid date]</text><line style="stroke:#A80036;stroke-width:1.0;" x1="208.5" x2="218.5" y1="781.0859" y2="777.0859"/><line style="stroke:#A80036;stroke-width:1.0;" x1="208.5" x2="218.5" y1="781.0859" y2="785.0859"/><line style="stroke:#A80036;stroke-width:1.0;stroke-dasharray:2.0,2.0;" x1="208.5" x2="1599.5" y1="781.0859" y2="781.0859"/><text fill="#000000" font-family="sans-serif" font-size="13" lengthAdjust="spacing" textLength="137" x="225.5" y="776.2295">forward viewBooking.jsp</text><line style="stroke:#000000;stroke-width:1.0;stroke-dasharray:2.0,2.0;" x1="159" x2="2640" y1="790.0859" y2="790.0859"/><text fill="#000000" font-family="sans-serif" font-size="11" font-weight="bold" lengthAdjust="spacing" textLength="60" x="164" y="801.5049">[valid date]</text><line style="stroke:#A80036;stroke-width:1.0;" x1="1610.5" x2="1652.5" y1="827.2734" y2="827.2734"/><line style="stroke:#A80036;stroke-width:1.0;" x1="1652.5" x2="1652.5" y1="827.2734" y2="840.2734"/><line style="stroke:#A80036;stroke-width:1.0;" x1="1611.5" x2="1652.5" y1="840.2734" y2="840.2734"/><line style="stroke:#A80036;stroke-width:1.0;" x1="1611.5" x2="1621.5" y1="840.2734" y2="836.2734"/><line style="stroke:#A80036;stroke-width:1.0;" x1="1611.5" x2="1621.5" y1="840.2734" y2="844.2734"/><text fill="#000000" font-family="sans-serif" font-size="13" lengthAdjust="spacing" textLength="266" x="1617.5" y="822.417">HttpSession.getAttribute(String name): Object</text><line style="stroke:#A80036;stroke-width:1.0;" x1="2400.5" x2="2390.5" y1="870.625" y2="866.625"/><line style="stroke:#A80036;stroke-width:1.0;" x1="2400.5" x2="2390.5" y1="870.625" y2="874.625"/><line style="stroke:#A80036;stroke-width:1.0;" x1="1610.5" x2="2401.5" y1="870.625" y2="870.625"/><text fill="#000000" font-family="sans-serif" font-size="13" lengthAdjust="spacing" textLength="709" x="1617.5" y="865.7686">getBookingWithUserId(Integer userId, Date startDate, Date endDate, String roomId, Integer status): ArrayList&lt;BookingInfo&gt;</text><line style="stroke:#A80036;stroke-width:1.0;" x1="2583.5" x2="2573.5" y1="900.9766" y2="896.9766"/><line style="stroke:#A80036;stroke-width:1.0;" x1="2583.5" x2="2573.5" y1="900.9766" y2="904.9766"/><line style="stroke:#A80036;stroke-width:1.0;" x1="2412.5" x2="2584.5" y1="900.9766" y2="900.9766"/><text fill="#000000" font-family="sans-serif" font-size="13" lengthAdjust="spacing" textLength="154" x="2419.5" y="896.1201">executeQuery(): ResultSet</text><line style="stroke:#A80036;stroke-width:1.0;" x1="2412.5" x2="2422.5" y1="931.3281" y2="927.3281"/><line style="stroke:#A80036;stroke-width:1.0;" x1="2412.5" x2="2422.5" y1="931.3281" y2="935.3281"/><line style="stroke:#A80036;stroke-width:1.0;stroke-dasharray:2.0,2.0;" x1="2412.5" x2="2589.5" y1="931.3281" y2="931.3281"/><text fill="#000000" font-family="sans-serif" font-size="13" lengthAdjust="spacing" textLength="94" x="2429.5" y="926.4717">return ResultSet</text><line style="stroke:#A80036;stroke-width:1.0;" x1="1610.5" x2="1620.5" y1="961.6797" y2="957.6797"/><line style="stroke:#A80036;stroke-width:1.0;" x1="1610.5" x2="1620.5" y1="961.6797" y2="965.6797"/><line style="stroke:#A80036;stroke-width:1.0;stroke-dasharray:2.0,2.0;" x1="1610.5" x2="2406.5" y1="961.6797" y2="961.6797"/><text fill="#000000" font-family="sans-serif" font-size="13" lengthAdjust="spacing" textLength="172" x="1627.5" y="956.8232">return ArrayList&lt;BookingInfo&gt;</text><line style="stroke:#A80036;stroke-width:1.0;" x1="1610.5" x2="1652.5" y1="992.0313" y2="992.0313"/><line style="stroke:#A80036;stroke-width:1.0;" x1="1652.5" x2="1652.5" y1="992.0313" y2="1005.0313"/><line style="stroke:#A80036;stroke-width:1.0;" x1="1611.5" x2="1652.5" y1="1005.0313" y2="1005.0313"/><line style="stroke:#A80036;stroke-width:1.0;" x1="1611.5" x2="1621.5" y1="1005.0313" y2="1001.0313"/><line style="stroke:#A80036;stroke-width:1.0;" x1="1611.5" x2="1621.5" y1="1005.0313" y2="1009.0313"/><text fill="#000000" font-family="sans-serif" font-size="13" lengthAdjust="spacing" textLength="358" x="1617.5" y="987.1748">HttpServletRequest.setAttribute(String arg0, Object arg1): void</text><line style="stroke:#A80036;stroke-width:1.0;" x1="203.5" x2="213.5" y1="1035.3828" y2="1031.3828"/><line style="stroke:#A80036;stroke-width:1.0;" x1="203.5" x2="213.5" y1="1035.3828" y2="1039.3828"/><line style="stroke:#A80036;stroke-width:1.0;stroke-dasharray:2.0,2.0;" x1="203.5" x2="1604.5" y1="1035.3828" y2="1035.3828"/><text fill="#000000" font-family="sans-serif" font-size="13" lengthAdjust="spacing" textLength="137" x="220.5" y="1030.5264">forward viewBooking.jsp</text><!--MD5=[3f9ed5bf0898039c6789a17181d9f19f]
@startuml viewBookingForCustomer

hide footbox
mainframe <b>sd</b> View Booking Information for Customer
actor User
participant "Browser" as Browser
participant ":CommonRoleFilter" as CommonRoleFilter
participant ":Helper" as Helper
participant ":ViewBookingController" as ViewBookingController
participant ":GetParam" as GetParam
participant ":BookingInfoDAO" as BookingInfoDAO
participant "Database" as DB

User ->> Browser: Click on view booking Link
activate Browser
Browser ->> CommonRoleFilter: GET /ViewBookingController
activate CommonRoleFilter
CommonRoleFilter ->> CommonRoleFilter: Context.lookup(String name): Object
CommonRoleFilter ->> Helper: protectedRouter(HttpServletRequest request, HttpServletResponse response, int minRole, int maxRole, String page): boolean
activate Helper
Helper ->> Helper: isLogin(HttpServletRequest request): boolean
Helper ->> Helper: correctRole(HttpServletRequest request, int minRole, int maxRole): boolean
alt return false 
    Helper - ->> CommonRoleFilter: forward login.jsp
    CommonRoleFilter - ->> Browser: forward login.jsp
else return true
    Helper - ->> CommonRoleFilter: return true
    deactivate Helper
    CommonRoleFilter ->> ViewBookingController: doFilter(ServletRequest arg0, ServletResponse arg1): void
    deactivate CommonRoleFilter
    activate ViewBookingController
    ViewBookingController ->> GetParam: getDateParams(HttpServletRequest request, String field, String label, String defaultValue): Date
    activate GetParam
    GetParam - ->> ViewBookingController:return startDate, endDate 
    ViewBookingController ->> GetParam: getIntParams(HttpServletRequest request, String field, String label, int min, int max, Integer defaultValue): Integer
    GetParam - ->> ViewBookingController:return roomId, status
    deactivate GetParam
    alt invalid data 
        ViewBookingController - ->> Browser: forward viewBooking.jsp
    else 
        ViewBookingController ->> ViewBookingController: Validator.computeNumberOfDay(HttpServletRequest request, Date startDate, Date endDate): Integer
        alt invalid date 
            ViewBookingController - ->> Browser: forward viewBooking.jsp
        else valid date
            ViewBookingController ->> ViewBookingController:   HttpSession.getAttribute(String name): Object
            ViewBookingController ->>  BookingInfoDAO: getBookingWithUserId(Integer userId, Date startDate, Date endDate, String roomId, Integer status): ArrayList<BookingInfo>
            activate BookingInfoDAO
            BookingInfoDAO ->> DB: executeQuery(): ResultSet
            activate DB
            DB - ->> BookingInfoDAO: return ResultSet
            deactivate DB
            BookingInfoDAO - ->> ViewBookingController: return ArrayList<BookingInfo>
            deactivate BookingInfoDAO
            ViewBookingController ->> ViewBookingController: HttpServletRequest.setAttribute(String arg0, Object arg1): void
            ViewBookingController - ->> Browser: forward viewBooking.jsp
            deactivate ViewBookingController
            deactivate Browser
        end
    end
end

@enduml

PlantUML version 1.2021.7(Sun May 23 19:40:07 ICT 2021)
(GPL source distribution)
Java Runtime: OpenJDK Runtime Environment
JVM: OpenJDK 64-Bit Server VM
Default Encoding: Cp1252
Language: en
Country: US
--></g></svg>